<?xml version="1.0" standalone="no"?>
<!DOCTYPE svg PUBLIC "-//W3C//DTD SVG 20010904//EN"
 "http://www.w3.org/TR/2001/REC-SVG-20010904/DTD/svg10.dtd">
<svg version="1.0" xmlns="http://www.w3.org/2000/svg"
 width="1920.000000pt" height="1080.000000pt" viewBox="0 0 1920.000000 1080.000000"
 preserveAspectRatio="xMidYMid meet">
<metadata>
Created by potrace 1.16, written by Peter Selinger 2001-2019
</metadata>
<g transform="translate(0.000000,1080.000000) scale(0.100000,-0.100000)"
fill="#000000" stroke="none">
<path d="M0 5400 l0 -5400 5560 0 5560 0 0 80 c0 64 -3 80 -15 80 -9 0 -15 9
-15 24 0 13 -3 31 -6 40 -4 12 0 16 15 16 18 0 21 6 22 43 0 32 2 37 9 22 6
-15 9 -16 9 -4 1 18 71 43 83 31 5 -5 13 -35 18 -68 5 -32 16 -101 25 -153 8
-52 15 -98 15 -103 0 -4 1782 -8 3960 -8 l3960 0 0 788 0 788 -112 105 c-97
90 -223 205 -393 358 -22 20 -56 48 -75 63 -19 14 -60 49 -90 77 -30 28 -59
51 -63 51 -4 0 -27 18 -50 39 -39 37 -208 174 -327 266 -29 22 -57 45 -64 51
-6 5 -19 13 -30 17 -14 6 -17 4 -12 -9 3 -8 6 -18 6 -20 0 -2 7 -4 15 -4 8 0
15 -5 15 -10 0 -6 15 -18 33 -26 19 -9 23 -13 10 -10 -13 2 -23 0 -23 -5 0 -5
4 -9 10 -9 13 0 50 -41 50 -56 0 -23 -30 -23 -82 0 -52 23 -108 37 -158 41
-41 3 -56 14 -70 50 -13 33 -30 47 -30 25 0 -5 -9 -10 -20 -10 -11 0 -20 4
-20 9 0 6 -21 13 -46 17 -32 4 -53 15 -68 32 -44 54 -95 102 -107 102 -7 0
-20 7 -30 16 -13 12 -44 15 -153 16 -164 0 -177 -5 -141 -62 13 -21 27 -50 31
-64 3 -14 12 -26 20 -26 26 0 16 -39 -11 -46 -14 -3 -130 -4 -258 0 -128 3
-369 9 -537 12 -295 6 -306 7 -331 28 -15 13 -40 28 -58 35 -17 8 -31 16 -31
20 0 10 -51 66 -61 67 -5 1 -13 2 -18 3 -5 0 -11 10 -14 21 -4 15 -14 20 -36
20 -26 0 -31 4 -31 25 0 18 -5 25 -20 25 -15 0 -20 7 -20 29 0 41 -9 61 -29
61 -23 1 -51 24 -51 44 0 9 -8 16 -20 16 -13 0 -20 -7 -20 -20 0 -16 -7 -20
-32 -21 -18 0 -46 -2 -61 -4 -38 -5 -75 10 -99 40 -11 14 -27 25 -36 25 -21 1
-92 65 -92 84 0 7 -19 22 -42 32 -24 10 -64 37 -90 59 -79 67 -101 82 -180
120 -78 38 -89 55 -45 71 19 6 17 8 -13 11 -19 3 -37 8 -40 11 -9 12 -49 32
-65 32 -8 0 -20 9 -27 20 -7 11 -19 20 -26 20 -7 0 -60 23 -118 50 -58 28
-110 50 -117 50 -7 0 -43 16 -82 36 -57 29 -77 34 -109 29 -37 -5 -73 2 -146
32 -20 8 -44 15 -55 17 -10 1 -21 8 -23 14 -2 7 -10 12 -18 12 -8 0 -14 5 -14
10 0 6 -11 10 -26 10 -14 0 -39 13 -57 30 -18 17 -40 33 -50 36 -9 3 -15 10
-12 15 10 15 -15 10 -31 -6 -9 -8 -24 -15 -35 -15 -13 0 -19 -7 -19 -21 0 -11
5 -17 10 -14 13 8 80 -58 80 -79 0 -12 -11 -16 -48 -16 -26 0 -52 4 -57 9 -6
5 -47 12 -93 16 l-83 7 12 -26 c7 -14 15 -26 19 -26 3 0 4 -15 2 -33 l-4 -32
-106 3 c-59 2 -131 3 -159 3 -29 0 -55 5 -58 10 -10 14 -103 11 -112 -4 -4 -8
-21 -17 -36 -21 -44 -11 -29 14 27 45 26 14 55 34 64 43 16 16 15 17 -11 5
-20 -9 -31 -9 -38 -2 -8 8 -5 13 10 18 41 13 20 25 -46 26 -38 1 -54 4 -38 6
17 3 34 9 40 14 5 5 37 9 70 9 35 0 75 7 92 15 16 8 39 16 50 18 29 4 53 26
53 48 0 12 7 19 20 19 11 0 27 11 36 25 14 22 20 24 62 18 29 -4 52 -13 60
-25 7 -10 18 -16 23 -13 5 4 9 1 9 -4 0 -6 18 -11 40 -11 27 0 43 -5 46 -15 7
-16 44 -21 44 -6 0 5 17 15 37 22 l37 12 -49 14 c-28 8 -72 18 -100 22 -56 7
-78 18 -70 32 4 5 -7 9 -24 9 -16 0 -31 -6 -33 -12 -3 -9 -9 -8 -22 4 -15 16
-16 20 -1 48 8 16 20 30 26 30 5 0 14 11 19 25 6 15 17 25 29 25 13 0 30 20
56 65 20 36 54 92 76 125 21 32 39 62 39 65 0 3 18 33 40 66 22 33 40 63 40
66 0 2 14 25 30 49 17 24 44 64 60 88 17 24 30 48 30 53 0 4 9 19 20 33 23 30
25 50 5 50 -17 0 -20 16 -5 25 11 7 6 57 -10 105 -4 14 -16 53 -25 87 -10 35
-21 63 -26 63 -10 0 -19 -27 -19 -60 0 -15 -13 -57 -30 -92 -19 -39 -30 -80
-31 -108 0 -51 -20 -155 -32 -166 -4 -4 -7 -14 -7 -23 1 -58 -106 -311 -156
-370 -26 -31 -44 -40 -44 -20 0 5 4 7 10 4 6 -3 10 0 10 8 0 8 7 20 15 27 8 7
18 28 21 48 4 20 16 51 26 69 11 18 17 33 12 33 -4 0 0 8 9 18 8 9 19 35 23
57 l7 39 -26 -17 c-26 -17 -28 -17 -43 2 -10 12 -24 17 -37 13 -21 -5 -21 -5
1 25 11 16 27 35 35 41 7 6 24 35 38 64 13 29 28 56 34 60 6 5 4 14 -7 24 -16
16 -19 16 -35 1 -13 -11 -23 -13 -33 -7 -20 13 -77 13 -85 0 -3 -5 -25 -10
-47 -10 -39 0 -40 1 -25 18 28 31 20 40 -43 53 -49 9 -60 15 -60 31 0 19 7 19
152 16 132 -3 153 -1 156 13 1 9 -17 29 -45 49 -26 19 -53 40 -58 48 -7 9 -27
12 -60 10 -48 -3 -50 -2 -47 21 3 18 0 22 -11 18 -8 -3 -23 3 -32 13 -16 17
-16 20 -2 26 8 3 24 1 34 -4 17 -9 56 -8 111 4 12 2 22 11 22 18 0 12 26 27
55 30 6 1 21 9 35 19 l24 17 -22 20 c-12 12 -22 30 -22 40 0 17 7 20 43 20 34
0 48 6 71 31 26 27 31 29 36 14 5 -15 7 -15 19 -1 19 23 41 103 42 155 1 25 3
37 6 26 2 -11 6 -30 9 -43 2 -13 9 -20 15 -17 6 4 8 -4 4 -22 -5 -21 -4 -24 4
-13 9 12 16 11 56 -8 25 -12 52 -22 60 -22 8 0 15 -4 15 -9 0 -4 22 -11 48
-14 27 -3 65 -13 85 -23 33 -16 38 -16 60 -1 24 16 31 7 15 -18 -13 -22 22
-49 72 -55 29 -4 50 -2 50 3 0 5 16 6 38 2 20 -4 78 -8 127 -9 50 -1 117 -5
150 -10 40 -5 70 -3 90 5 34 13 187 13 213 0 70 -36 110 -41 125 -16 12 22 60
27 99 11 39 -17 48 -13 48 20 0 13 10 30 21 38 18 12 21 22 16 55 -4 31 -2 41
9 41 8 0 14 -6 14 -12 0 -7 14 -21 31 -31 25 -14 30 -22 25 -40 -4 -16 3 -31
25 -55 26 -28 26 -37 -3 -34 -3 1 -8 -4 -11 -12 -4 -9 6 -12 41 -8 25 2 55 -1
66 -6 12 -5 34 -15 50 -21 27 -11 28 -12 11 -31 -10 -11 -21 -18 -25 -15 -13
8 -80 -18 -80 -32 0 -7 -4 -13 -10 -13 -15 0 -12 -40 3 -40 6 -1 -8 -11 -32
-24 -42 -22 -44 -24 -24 -35 12 -6 39 -11 61 -11 22 0 57 -6 79 -14 29 -10 44
-11 59 -3 10 6 66 14 124 17 58 3 111 8 119 11 9 2 17 -4 19 -15 3 -15 0 -18
-17 -13 -29 7 -17 -8 20 -27 16 -8 37 -12 46 -9 8 3 19 0 25 -8 7 -11 9 -9 5
7 -10 50 120 -11 143 -67 29 -68 45 -79 120 -79 65 0 120 -14 120 -31 0 -4 14
-10 30 -14 17 -4 30 -10 30 -15 0 -20 60 -28 132 -18 80 11 147 5 223 -19 75
-24 98 -35 122 -60 12 -13 31 -23 43 -23 11 0 20 -4 20 -8 0 -5 26 -21 58 -37
31 -15 83 -44 114 -64 51 -32 57 -39 64 -81 4 -25 8 -48 10 -52 1 -5 3 -14 4
-20 1 -7 5 -2 9 12 7 22 9 19 16 -23 4 -26 16 -64 26 -84 11 -21 19 -43 19
-50 0 -7 4 -13 9 -13 5 0 24 -12 41 -27 30 -25 32 -30 28 -78 -4 -48 -3 -53
29 -76 18 -13 33 -32 33 -42 0 -10 6 -17 13 -15 6 1 29 -9 49 -22 28 -19 38
-32 38 -52 0 -16 4 -28 9 -28 11 0 -4 -60 -17 -69 -4 -3 -7 -42 -6 -86 1 -44
3 -103 3 -132 1 -28 7 -58 14 -65 7 -7 18 -25 24 -41 7 -15 18 -27 24 -27 6 0
20 -11 31 -25 10 -13 23 -24 27 -22 10 3 81 -60 81 -73 0 -6 6 -13 14 -16 17
-7 28 -42 14 -46 -22 -8 4 -49 33 -55 20 -4 29 -12 29 -24 0 -11 4 -19 10 -19
12 0 40 -53 40 -75 0 -22 29 -45 123 -100 42 -25 77 -50 77 -55 0 -6 7 -10 15
-10 8 0 15 -4 15 -9 0 -12 58 -71 70 -71 6 0 10 -3 10 -8 0 -4 10 -12 22 -17
12 -6 33 -26 46 -45 13 -19 29 -35 37 -35 7 0 33 -27 58 -60 51 -68 189 -204
229 -224 14 -7 34 -31 44 -53 10 -22 36 -52 59 -69 22 -16 49 -44 59 -62 11
-17 67 -82 125 -142 94 -99 143 -156 191 -224 8 -12 18 -21 22 -21 5 0 8 1293
8 2874 0 2280 -3 2875 -13 2879 -9 4 -9 6 1 6 9 1 12 346 12 1692 l0 1690
-319 -2 c-303 -1 -320 -2 -324 -20 -7 -25 -37 -24 -44 1 -5 20 -13 20 -5813
20 -4624 0 -5809 -3 -5813 -13 -4 -9 -7 -9 -18 1 -10 9 -712 12 -3441 12
l-3428 0 0 -5400z m9033 3843 c4 -3 2 -12 -4 -20 -10 -11 -4 -12 36 -8 27 4
58 11 69 18 25 14 192 14 426 -1 91 -6 253 -16 360 -22 408 -22 471 -28 512
-50 21 -11 47 -20 58 -20 43 0 322 -114 389 -160 55 -36 82 -83 61 -104 -7 -7
-10 -1 -10 14 0 23 -2 22 -25 -12 -15 -23 -25 -51 -25 -73 l0 -37 -41 36 c-35
30 -228 116 -260 116 -5 0 -28 8 -52 19 -23 10 -55 22 -72 27 -21 7 -31 17
-33 34 -6 45 -22 46 -22 3 l0 -42 -47 21 c-53 24 -211 39 -573 57 -107 6 -208
12 -225 15 -16 3 -139 10 -272 17 -195 10 -240 15 -236 26 3 8 -2 13 -12 13
-11 0 -15 -5 -12 -14 7 -17 -69 -56 -108 -56 -36 0 -115 -21 -115 -30 0 -4
-26 -10 -57 -13 -32 -4 -69 -8 -83 -9 -22 -3 -25 0 -22 27 6 51 25 83 62 100
56 28 211 78 260 84 37 5 46 10 48 29 3 22 13 28 25 15z m-753 -253 c0 -5 -4
-10 -8 -10 -4 0 -14 -16 -21 -36 -9 -25 -17 -34 -28 -30 -8 3 -53 6 -99 6 -94
0 -103 8 -58 54 25 24 33 26 120 26 56 0 94 -4 94 -10z m3218 -202 c15 -14 42
-33 60 -42 18 -9 37 -27 42 -40 5 -13 16 -26 24 -29 11 -4 16 -19 16 -45 0
-31 -5 -41 -22 -49 -21 -10 -31 -3 -101 66 l-77 76 -85 3 c-90 4 -105 14 -83
55 18 35 28 38 116 34 72 -3 86 -7 110 -29z m-3310 -283 c38 -41 42 -83 12
-133 -57 -93 -210 -51 -210 57 0 43 35 95 74 112 38 15 89 0 124 -36z m2327
-162 c22 -15 63 -45 92 -67 126 -98 158 -121 170 -118 18 4 35 -15 57 -63 11
-22 30 -56 42 -75 13 -19 29 -51 35 -70 7 -19 21 -48 32 -63 10 -16 17 -31 14
-33 -7 -7 -78 83 -132 166 -44 68 -158 180 -183 180 -4 0 -28 23 -52 50 -24
28 -51 50 -60 50 -20 0 -83 54 -74 63 11 11 16 9 59 -20z m865 2 c65 -34 76
-121 24 -177 -24 -24 -36 -28 -81 -28 -68 0 -111 34 -120 95 -4 35 -1 46 23
74 43 52 98 65 154 36z m-3236 -140 c19 -17 26 -34 26 -60 0 -50 -14 -71 -54
-85 -29 -9 -41 -8 -68 6 -42 21 -48 30 -48 77 0 48 38 87 85 87 20 0 42 -9 59
-25z m3204 -175 c52 -32 59 -74 20 -128 -10 -15 -30 -25 -55 -29 -32 -4 -45 0
-71 22 -37 31 -42 70 -15 111 30 46 71 54 121 24z m402 -327 c29 -48 31 -56
20 -82 -10 -25 -8 -36 10 -80 23 -52 36 -63 46 -36 8 21 47 19 68 -4 13 -14
14 -24 7 -45 -6 -14 -17 -26 -26 -26 -17 0 -21 -25 -5 -35 6 -3 10 -25 10 -48
0 -23 7 -76 16 -117 9 -41 25 -133 36 -205 11 -71 24 -155 30 -185 13 -70 15
-254 5 -537 -7 -197 -6 -223 7 -223 19 0 28 -34 21 -80 -3 -19 -7 -62 -9 -95
-2 -33 -1 -39 1 -12 3 31 8 45 15 41 7 -5 9 2 6 20 -4 17 -1 25 6 23 6 -2 12
-17 14 -34 5 -53 87 -70 94 -20 4 29 31 28 38 -2 3 -13 15 -27 27 -32 18 -6
21 -5 16 8 -4 11 -1 14 13 11 10 -2 18 -8 17 -14 -1 -5 42 -8 104 -6 99 3 106
2 138 -22 19 -14 46 -26 60 -26 15 0 46 -13 70 -29 33 -22 42 -25 38 -12 -2
10 3 23 11 31 14 11 20 10 36 -5 24 -22 11 -55 -23 -55 -17 -1 -14 -5 17 -22
44 -23 104 -21 184 4 38 12 42 16 42 45 0 17 5 35 11 39 6 3 8 17 5 30 -5 17
-2 24 9 24 8 0 15 -8 15 -18 0 -10 11 -29 25 -42 l25 -24 20 22 c11 12 20 26
20 32 0 16 47 12 54 -6 10 -26 7 -34 -16 -44 l-23 -9 25 -2 c38 -3 42 -4 83
-19 20 -8 38 -21 39 -30 0 -8 2 -20 2 -25 1 -6 9 -21 18 -33 13 -20 23 -23 60
-20 42 4 43 4 40 38 l-4 34 24 -30 c46 -58 47 -66 18 -91 -15 -12 -30 -36 -33
-53 -5 -22 -13 -31 -34 -36 -27 -5 -123 -51 -133 -63 -3 -3 -18 -13 -35 -21
-16 -8 -53 -37 -81 -65 -29 -27 -77 -74 -108 -103 -31 -29 -56 -59 -56 -67 0
-8 -45 -59 -100 -113 l-100 -97 -73 -5 -72 -5 -19 -42 c-22 -49 -54 -61 -104
-40 l-32 13 33 30 c17 17 53 40 80 53 33 16 47 28 47 43 0 18 -4 19 -37 13
-21 -4 -49 -15 -64 -26 -15 -10 -33 -19 -41 -19 -16 0 82 99 100 100 7 0 18 5
25 10 54 46 63 50 105 50 30 0 60 -8 89 -25 48 -29 54 -23 20 16 -24 28 -128
72 -150 63 -8 -3 -24 -19 -37 -36 -12 -16 -41 -38 -64 -48 -22 -11 -63 -40
-91 -66 -39 -36 -58 -47 -88 -49 -22 -1 -44 -10 -55 -22 -9 -11 -23 -18 -29
-16 -7 3 -13 -1 -13 -7 0 -10 -4 -10 -15 0 -23 19 -19 28 43 91 90 93 87 89
53 89 -22 0 -35 -7 -48 -27 -10 -16 -26 -34 -37 -42 -11 -8 -28 -23 -37 -32
-10 -10 -20 -15 -23 -11 -4 3 -13 -3 -21 -14 -30 -40 -13 30 26 108 12 24 11
38 -2 38 -23 0 -61 -41 -90 -98 -31 -59 -41 -68 -106 -92 -18 -7 -33 -16 -33
-21 0 -18 -28 -8 -43 15 -10 15 -30 26 -53 31 -21 3 -55 15 -76 26 -20 10 -54
19 -74 19 -21 0 -64 7 -97 17 -51 14 -66 14 -115 3 -31 -7 -100 -12 -152 -11
-90 1 -150 -11 -150 -30 0 -5 -7 -9 -16 -9 -8 0 -32 -14 -54 -31 -33 -27 -41
-29 -61 -19 -21 12 -21 14 -6 25 14 10 15 16 4 38 -12 26 -47 38 -47 17 0 -23
-50 -60 -79 -60 -31 0 -101 -28 -101 -40 0 -8 -63 -75 -70 -75 -3 1 -11 -10
-17 -23 -14 -26 -5 -42 29 -54 31 -12 29 -118 -2 -118 -31 0 -50 11 -50 30 0
11 -5 22 -10 25 -6 4 -10 16 -8 28 2 16 -3 23 -19 25 -14 2 -23 10 -23 21 0
17 -6 36 -50 176 -10 33 -22 80 -26 105 -3 25 -13 57 -21 73 -11 22 -17 26
-32 18 -10 -6 -22 -7 -26 -3 -4 4 -4 -4 0 -18 7 -22 6 -23 -8 -12 -13 11 -16
8 -22 -25 -3 -21 -6 -54 -6 -73 -1 -33 -12 -236 -22 -400 -4 -54 -3 -62 2 -30
8 43 8 43 9 -24 2 -63 0 -68 -17 -63 -21 5 -45 -39 -56 -105 -10 -61 2 -84 48
-101 45 -17 175 -28 179 -15 2 4 39 10 83 14 44 3 83 8 88 11 4 2 -9 16 -30
30 -57 37 -80 73 -49 73 8 0 16 4 18 9 2 5 47 11 101 14 81 3 100 7 113 23 13
17 14 15 8 -27 -3 -26 -6 -63 -7 -83 -1 -26 -5 -35 -14 -32 -20 8 -15 -4 10
-25 12 -10 30 -18 40 -19 15 0 16 3 7 20 -13 24 0 26 49 9 22 -8 30 -16 27
-26 -3 -8 -6 -40 -6 -70 l0 -56 -92 7 c-51 3 -187 11 -302 16 -180 9 -212 8
-239 -5 -16 -8 -33 -15 -37 -15 -17 0 -19 33 -5 60 20 40 20 40 -25 40 -22 0
-40 5 -40 10 0 6 -8 10 -17 11 -14 0 -12 3 5 9 18 8 23 18 23 47 1 21 5 153
10 293 16 439 16 447 -2 465 -21 21 -44 25 -214 36 -77 5 -162 13 -190 17 -27
4 -66 5 -85 2 l-35 -6 45 -7 c25 -4 135 -14 245 -22 110 -8 206 -17 214 -20
14 -6 15 10 -6 -413 -4 -90 -9 -132 -17 -129 -12 4 -21 52 -34 182 -8 75 -9
77 -16 42 -5 -21 -5 -77 -2 -125 6 -81 5 -88 -14 -105 -20 -17 -21 -20 -6 -42
9 -13 16 -33 16 -44 0 -18 -5 -19 -52 -16 -29 3 -125 9 -213 15 -255 17 -266
20 -264 68 1 15 3 20 6 10 4 -17 32 -33 41 -23 3 3 0 5 -6 5 -7 0 -12 13 -12
29 0 17 -5 33 -10 36 -7 4 -10 96 -10 258 0 139 0 263 0 276 0 19 -4 23 -25
19 -24 -5 -25 -3 -25 38 0 24 6 49 13 56 10 9 11 25 5 67 -5 31 -7 64 -4 73 2
10 1 18 -3 18 -9 0 -37 -114 -51 -210 -7 -41 -15 -93 -20 -115 -5 -22 -6 -59
-3 -82 5 -35 3 -43 -11 -43 -9 0 -16 8 -16 20 0 11 -7 23 -15 26 -8 4 -13 9
-11 13 3 4 -5 20 -18 35 -21 27 -30 29 -116 36 -51 5 -99 6 -105 3 -7 -2 -16
0 -20 6 -3 6 -35 11 -69 11 -35 0 -80 7 -100 15 -26 11 -52 14 -86 9 -44 -6
-53 -4 -81 20 -50 42 -58 32 -46 -52 4 -32 3 -34 -22 -27 -14 3 -33 7 -41 9
-78 18 -77 17 -104 74 -14 32 -44 76 -67 100 -39 42 -40 42 -109 42 l-70 0 0
39 c0 62 11 66 162 54 123 -10 133 -9 152 8 17 17 18 19 3 19 -19 0 -24 20 -4
21 6 0 169 0 361 0 370 -1 366 -1 366 45 0 26 -17 34 -71 34 -36 0 -39 2 -39
28 0 38 -17 52 -61 52 -35 0 -38 -2 -41 -32 -3 -32 -4 -33 -53 -34 -38 -1 -51
-5 -53 -17 -2 -10 -7 -17 -12 -17 -4 0 -11 -10 -15 -22 -8 -22 -8 -22 -12 4
-6 38 -46 45 -298 51 -129 3 -140 4 -144 23 -6 33 -22 44 -62 44 -36 0 -39 -2
-39 -28 0 -28 -2 -29 -51 -31 -29 -1 -55 -3 -59 -6 -4 -2 -28 7 -53 20 -25 14
-54 25 -64 25 -10 0 -45 14 -78 30 -48 24 -73 30 -127 30 -39 0 -68 -4 -68
-10 0 -5 -12 -10 -26 -10 -17 0 -28 -6 -31 -20 -4 -16 -14 -20 -44 -20 -38 0
-39 -1 -39 -35 0 -25 -5 -38 -17 -42 -10 -4 -21 -11 -25 -16 -4 -6 -12 -4 -22
5 -9 9 -24 14 -36 11 -19 -5 -20 -1 -20 76 0 47 -4 81 -10 81 -6 0 -10 33 -10
80 l0 80 -70 0 -70 0 0 80 c0 79 0 80 -25 80 -27 0 -32 18 -15 51 10 18 3 25
-24 20 -35 -7 -65 40 -33 52 9 4 9 8 -2 15 -10 8 -11 14 -1 32 25 46 143 69
155 30 4 -13 15 -20 30 -20 13 0 27 -4 30 -10 4 -6 -7 -10 -24 -10 -17 0 -31
-4 -31 -10 0 -5 5 -10 10 -10 6 0 10 -9 10 -20 0 -11 -4 -20 -10 -20 -5 0 -10
-4 -10 -10 0 -6 27 -10 60 -10 33 0 60 -4 60 -10 0 -5 13 -10 29 -10 17 0 36
-8 43 -17 21 -29 58 -41 141 -47 43 -3 88 -12 100 -21 13 -8 26 -13 29 -10 7
8 58 -16 58 -27 0 -5 6 -8 13 -6 6 1 27 -11 45 -27 35 -31 82 -50 82 -34 0 5
12 6 28 3 47 -11 326 -21 357 -12 19 5 31 4 33 -2 2 -5 10 -10 18 -10 8 0 14
-4 14 -9 0 -5 19 -11 43 -14 58 -6 149 -34 157 -47 4 -7 10 -11 14 -10 4 1 12
-1 19 -3 6 -3 -5 -6 -25 -6 -37 -1 -38 -2 -38 -37 0 -21 4 -33 10 -29 6 3 10
0 10 -8 0 -15 41 -47 59 -47 5 0 12 8 15 18 3 9 19 32 36 50 16 18 30 38 30
44 0 14 42 47 61 48 9 0 19 3 23 7 3 4 28 9 54 11 26 2 52 8 59 13 7 6 109 10
250 9 291 0 523 21 648 60 59 18 90 26 210 56 84 21 146 43 172 60 12 8 27 14
33 14 23 0 -2 -19 -67 -52 -38 -19 -77 -39 -88 -45 -88 -47 -179 -80 -260 -93
-111 -19 -115 -20 -115 -32 0 -12 78 -6 133 11 18 5 55 14 82 20 28 5 62 12
77 15 22 5 25 3 21 -14 -6 -21 20 -29 32 -10 3 6 17 10 30 10 29 0 87 34 129
76 17 17 51 41 75 53 41 21 79 48 155 113 33 28 32 48 -3 27 -29 -19 -36 -5
-14 28 23 33 34 71 23 78 -4 3 -15 -12 -23 -33 -19 -48 -44 -69 -85 -70 -17 0
-41 -4 -52 -7 -11 -4 -20 -2 -20 4 0 6 8 11 19 11 45 0 65 123 35 210 -10 31
-9 39 7 59 11 13 19 18 19 12 0 -6 8 -11 19 -11 39 0 44 -25 15 -80 -15 -29
-29 -73 -31 -99 -4 -43 -4 -45 11 -25 8 12 25 45 36 75 12 30 26 60 32 66 6 7
8 20 4 28 -4 10 1 15 14 15 28 0 25 20 -2 21 -22 2 -22 2 -2 6 18 3 23 14 28
60 4 31 12 63 18 70 7 9 37 13 94 13 l84 0 76 -62 c99 -82 131 -105 174 -126
19 -9 58 -33 85 -54 43 -32 124 -78 139 -78 10 0 -30 65 -50 81 -11 10 -35 31
-53 48 -18 17 -38 31 -45 31 -6 0 -26 13 -44 28 -23 20 -29 31 -21 39 8 8 29
2 77 -22 71 -34 132 -51 132 -35 0 4 -8 11 -17 13 -10 3 3 4 29 2 50 -2 155
-47 175 -74 6 -9 15 -12 19 -8 8 8 -59 77 -75 77 -4 0 -18 11 -30 24 -13 14
-37 30 -54 37 -18 7 -34 15 -37 18 -5 6 -15 12 -125 74 -89 50 -110 68 -93 79
24 15 51 8 134 -32 97 -47 113 -49 85 -14 -25 32 -27 54 -6 54 30 0 33 40 8
87 -13 24 -23 52 -23 63 0 10 -9 40 -21 67 -11 26 -22 55 -24 63 -2 8 -13 42
-24 74 -24 69 -24 66 -11 66 5 0 13 -18 16 -40 4 -23 9 -38 12 -35 3 3 14 -14
25 -38 27 -59 56 -144 51 -150 -2 -2 5 -30 16 -62 11 -32 20 -71 20 -88 0 -40
39 -107 62 -107 15 0 18 9 18 56 0 30 -5 65 -12 77 -6 12 -17 49 -24 82 -19
88 -48 186 -67 222 -9 18 -19 49 -23 70 -3 21 -7 49 -10 63 -3 14 -6 32 -8 40
-12 65 -56 160 -74 160 -27 0 -5 25 25 28 26 3 33 -2 48 -34 10 -21 23 -63 31
-93 7 -31 20 -81 29 -111 10 -30 21 -77 25 -105 4 -27 15 -75 24 -105 9 -30
22 -82 30 -115 7 -33 21 -77 30 -99 9 -21 16 -47 16 -57 0 -11 4 -19 10 -19
11 0 1 384 -11 388 -5 2 -2 13 6 25 28 40 18 124 -21 177 -6 8 -14 32 -18 53
-5 28 -12 37 -26 37 -16 0 -20 7 -20 30 0 35 -32 54 -63 38 -26 -14 -37 -2
-27 32 5 19 5 32 -2 36 -5 3 -18 20 -28 37 -18 28 -18 32 -3 61 9 17 19 45 23
61 8 42 44 46 63 8 9 -15 27 -39 41 -52 21 -19 29 -22 38 -13 10 10 10 16 0
30 -35 49 -55 100 -54 135 1 21 -2 46 -7 56 -8 14 -5 17 24 17 29 0 37 -6 65
-53z m-691 -73 c2 9 7 6 14 -10 13 -27 15 -486 2 -498 -20 -20 -26 40 -22 240
2 120 0 221 -4 225 -8 9 -13 48 -9 73 1 8 6 2 10 -15 4 -16 8 -23 9 -15z
m-1321 -992 c9 -9 18 -9 37 0 33 15 33 15 31 -5 -1 -14 6 -17 32 -15 29 2 33
0 27 -17 -8 -26 12 -37 34 -17 26 24 41 19 41 -12 0 -18 11 -38 30 -57 17 -16
30 -32 30 -36 0 -4 12 -21 28 -38 28 -33 94 -137 114 -183 7 -15 19 -29 28
-31 31 -7 -126 -64 -255 -93 -64 -15 -121 -18 -290 -17 -202 1 -215 2 -329 33
-136 35 -263 87 -263 105 0 7 6 11 12 8 14 -5 55 42 55 63 0 8 4 14 9 14 5 0
12 15 15 34 4 18 23 50 44 72 63 66 184 169 195 166 6 -2 13 1 16 7 15 24 336
42 359 19z m-3639 -188 c10 -5 38 -10 62 -11 58 -3 69 -8 78 -32 7 -18 16 -20
99 -18 50 1 100 -2 110 -8 13 -7 31 -6 59 4 23 8 71 17 107 21 l66 7 40 -44
c21 -24 39 -53 40 -63 0 -27 29 -45 73 -46 22 0 49 -9 67 -21 20 -15 42 -21
74 -21 25 1 48 -3 51 -8 3 -5 24 -8 46 -8 25 0 45 -5 50 -13 6 -10 9 -10 9 -2
0 7 16 19 35 27 19 8 35 21 35 29 0 10 17 16 52 20 28 4 54 10 57 14 11 14 50
33 70 33 11 0 23 6 28 13 4 6 10 -46 13 -118 6 -138 -1 -165 -41 -165 -12 0
-16 -5 -13 -14 3 -8 -9 -44 -26 -81 -19 -40 -30 -78 -27 -92 3 -19 -1 -24 -22
-29 -14 -3 -35 -9 -46 -14 -24 -11 -96 -20 -186 -25 -62 -3 -67 -2 -78 21 -14
31 -19 30 -63 -6 -25 -21 -35 -36 -31 -47 4 -11 2 -14 -5 -9 -16 9 -82 -58
-82 -83 0 -30 -36 -44 -96 -38 -43 4 -58 2 -79 -14 -32 -26 -32 -42 1 -27 18
9 33 9 54 1 26 -10 68 -6 126 12 13 4 37 -1 63 -14 37 -19 41 -25 41 -59 0
-35 6 -44 67 -98 76 -67 113 -77 113 -33 0 16 4 31 10 34 6 3 0 32 -15 70 -13
36 -20 65 -15 65 6 0 10 25 10 55 0 50 2 55 23 55 21 0 157 -122 157 -141 0
-5 5 -9 10 -9 6 0 10 -18 10 -40 0 -31 -4 -40 -17 -40 -23 0 -63 -39 -63 -62
0 -11 -7 -18 -20 -18 -11 0 -20 -7 -20 -15 0 -8 -5 -24 -11 -34 -16 -24 -4
-72 16 -65 25 10 17 -23 -13 -57 l-29 -32 -21 21 c-24 24 -67 29 -75 10 -4
-10 -8 -10 -15 1 -6 8 -18 11 -31 6 -18 -5 -21 -14 -21 -55 l0 -50 -27 13
c-16 6 -30 14 -33 17 -3 3 -18 14 -35 24 -16 11 -33 25 -37 32 -5 8 -21 10
-45 7 -33 -4 -43 0 -77 30 -21 19 -36 40 -32 46 4 6 2 11 -4 11 -6 0 -9 4 -6
9 8 12 -21 34 -34 26 -6 -4 -9 -13 -6 -21 3 -8 2 -14 -3 -14 -14 0 -62 41 -57
49 3 3 -11 17 -29 30 -19 13 -37 31 -40 41 -4 12 -13 16 -31 12 -15 -3 -32 2
-45 14 -20 18 -20 18 12 34 18 8 34 21 37 28 7 23 -22 12 -58 -21 -19 -19 -51
-40 -70 -47 -19 -7 -41 -18 -47 -23 -16 -11 -17 -100 -3 -127 16 -30 -39 -86
-93 -95 -23 -4 -67 -14 -97 -22 -30 -8 -71 -18 -90 -23 -32 -7 -81 -20 -305
-80 -93 -25 -296 -84 -365 -105 -315 -98 -527 -169 -705 -235 -27 -10 -93 -34
-146 -54 -260 -95 -727 -291 -1034 -434 -130 -61 -649 -322 -697 -352 -34 -19
-38 -20 -38 -5 0 9 9 19 19 22 11 3 22 16 25 29 4 13 10 24 14 24 5 0 17 8 28
19 11 10 41 30 66 44 25 14 67 46 94 71 27 25 55 46 62 46 6 0 12 4 12 9 0 5
14 14 30 21 31 13 40 29 18 31 -7 0 18 7 56 16 49 10 76 22 90 38 21 24 108
75 127 75 5 0 33 16 61 36 29 19 98 57 154 84 81 39 103 54 106 72 3 20 10 24
53 29 30 3 78 20 120 42 38 20 80 37 93 37 13 0 41 13 61 29 20 16 57 39 84
51 26 12 50 26 53 31 3 5 15 9 28 9 13 0 31 9 41 20 10 11 24 20 32 20 19 0
147 60 151 71 2 5 13 9 25 9 26 1 57 22 57 40 0 8 9 11 25 8 14 -3 28 -1 31 3
3 5 19 9 36 9 16 0 42 8 56 19 43 30 184 91 259 112 23 7 51 20 62 31 11 10
25 18 31 18 5 0 10 4 10 8 0 5 29 23 64 40 37 19 67 41 71 52 6 19 26 29 24
13 -4 -26 3 -35 11 -15 6 15 18 22 35 22 42 0 91 26 110 58 10 16 31 37 46 46
16 10 29 21 29 25 0 5 9 11 20 14 11 3 20 11 20 19 0 8 20 24 45 36 25 12 45
25 45 29 0 5 16 19 35 32 19 13 35 29 35 37 0 17 60 47 61 31 0 -8 2 -8 6 1 2
6 12 12 20 12 11 0 13 3 5 13 -7 8 -7 31 0 71 8 43 7 74 -1 109 -6 26 -11 108
-11 182 0 131 0 133 -26 149 -35 24 -29 59 11 67 29 6 27 8 -15 22 -8 3 -3 6
13 6 15 1 27 6 27 12 0 14 61 69 76 69 6 0 17 11 24 25 9 16 23 25 39 26 25 1
25 2 -3 8 -17 3 -29 9 -28 14 1 4 2 14 2 22 0 22 38 18 45 -5 3 -11 14 -20 23
-20 14 0 14 2 3 9 -28 18 28 33 105 29 41 -2 74 0 74 3 0 4 11 10 25 13 28 7
34 31 10 40 -20 7 -20 56 1 56 8 0 23 -4 33 -10z m1459 -494 c0 -21 -7 -41
-19 -52 -10 -9 -19 -27 -19 -38 0 -12 -13 -37 -28 -56 -38 -46 -52 -74 -52
-102 0 -13 -13 -39 -30 -58 -25 -30 -29 -32 -30 -15 0 11 -5 27 -10 35 -8 12
-10 10 -7 -10 1 -14 6 -30 10 -37 8 -13 -10 -69 -20 -60 -3 4 -5 46 -4 95 l1
88 58 60 c44 45 61 71 70 107 7 28 18 47 26 47 8 0 16 7 20 15 11 29 34 16 34
-19z m1637 -925 c88 -7 190 -14 228 -18 l67 -6 -2 -66 -1 -66 -6 55 c-6 52 -7
54 -41 61 -44 9 -514 38 -725 45 -88 2 -164 9 -169 14 -28 28 -14 27 649 -19z
m-168 -49 c101 -6 218 -13 262 -17 77 -7 80 -8 94 -38 22 -48 30 -184 16 -259
-7 -34 -11 -84 -11 -110 1 -26 -3 -59 -9 -75 -7 -15 -15 -46 -20 -68 -4 -22
-11 -52 -15 -67 -5 -22 -3 -28 10 -28 9 0 16 -8 16 -20 0 -23 -6 -24 -43 -7
-27 12 -36 27 -17 27 18 0 10 31 -15 56 -14 14 -30 22 -37 18 -7 -4 -8 -3 -4
5 5 7 -5 25 -24 44 l-32 32 3 110 c1 61 2 125 1 143 l-2 32 -65 0 c-69 0 -71
1 -55 29 26 49 -109 79 -171 38 -34 -22 -60 -12 -114 43 -22 23 -70 55 -107
72 -38 18 -68 38 -68 46 0 14 27 14 407 -6z m-473 -59 c-6 -41 -18 -186 -35
-411 -12 -161 -9 -189 24 -201 43 -17 202 -31 467 -41 145 -6 269 -15 274 -20
6 -6 33 -10 62 -10 45 0 55 4 73 28 l20 27 1 -39 0 -39 -187 6 c-283 8 -738
41 -759 55 -7 5 -8 33 -3 87 4 44 13 158 18 254 12 198 30 341 43 341 4 0 6
-17 2 -37z m-2074 -28 c0 4 25 -17 56 -47 64 -60 92 -111 73 -134 -15 -18 -45
-18 -52 0 -3 7 -25 23 -50 35 -41 20 -44 24 -45 64 -1 30 1 38 8 27 8 -11 9
-9 8 13 -2 18 -8 27 -20 27 -10 0 -18 7 -18 15 0 13 4 14 20 5 11 -6 20 -8 20
-5z m2483 -130 c20 -4 40 -12 44 -18 4 -6 10 -45 15 -87 20 -189 29 -211 92
-215 52 -3 63 -18 37 -47 -19 -19 -34 -23 -100 -26 -58 -3 -86 0 -109 12 -17
9 -42 16 -57 16 -25 0 -25 1 -25 81 0 72 -3 84 -26 112 -33 39 -84 141 -84
167 0 25 17 25 54 1 34 -23 66 -13 66 20 0 18 2 19 28 5 15 -8 44 -17 65 -21z
m657 -345 c0 -12 7 -20 16 -20 9 0 26 -10 38 -22 57 -59 85 -70 226 -83 53 -4
120 -31 120 -47 0 -5 32 -8 70 -8 62 0 70 -2 70 -19 0 -15 10 -21 40 -26 22
-4 40 -11 40 -16 0 -5 11 -9 24 -9 22 0 23 -2 13 -24 -8 -16 -14 -20 -19 -13
-5 8 -12 6 -22 -8 -9 -11 -16 -25 -16 -30 0 -6 -21 -17 -47 -24 -27 -8 -50
-17 -53 -21 -13 -16 -80 -50 -99 -50 -18 0 -21 6 -21 40 0 40 0 40 -40 40 -38
0 -39 1 -34 28 4 19 0 34 -10 45 -9 8 -16 20 -16 26 0 12 -23 14 -69 5 -17 -4
-31 -13 -31 -20 0 -20 -49 -38 -65 -24 -9 8 -17 6 -29 -6 -10 -9 -20 -13 -24
-9 -4 4 -1 10 6 12 23 9 12 23 -18 23 -28 0 -30 3 -30 35 0 19 3 35 8 35 4 0
8 23 10 50 2 37 -1 50 -10 50 -24 0 -39 22 -27 37 8 9 7 14 -5 19 -17 7 -23
54 -6 54 6 0 10 -9 10 -20z m-2984 -162 c4 -14 9 -17 17 -9 20 20 36 -21 37
-96 0 -39 4 -83 10 -98 12 -32 59 -74 83 -75 9 0 17 -6 17 -14 0 -13 72 -85
88 -87 4 -1 22 -2 40 -4 18 -1 35 -5 38 -8 3 -3 7 -36 9 -73 2 -38 8 -70 14
-72 6 -2 11 -11 11 -20 0 -13 -2 -14 -9 -4 -4 7 -12 12 -17 11 -20 -3 -35 2
-29 10 3 6 -4 15 -15 21 -11 6 -20 18 -20 28 0 14 -2 15 -9 3 -8 -12 -24 -8
-93 27 -46 23 -97 51 -115 61 -17 11 -44 21 -60 23 l-28 3 -8 100 c-11 122
-12 152 -9 237 2 60 4 66 22 61 10 -3 22 -14 26 -25z m304 -114 c0 -9 7 -23
16 -32 14 -13 15 -29 10 -96 -4 -45 -12 -84 -19 -88 -7 -5 -25 -6 -40 -3 -19
3 -26 1 -21 -7 4 -7 3 -8 -4 -4 -7 4 -12 18 -12 31 0 13 -11 32 -25 43 -29 23
-29 24 -14 108 l11 63 41 3 c50 4 57 1 57 -18z m4623 -326 c60 -40 85 -69 80
-89 -5 -19 11 -27 22 -10 3 6 25 1 51 -10 32 -15 56 -19 82 -14 l37 6 3 -234
c3 -296 -16 -447 -58 -447 -13 0 -15 -21 -18 -138 -2 -75 -7 -166 -12 -202 -5
-36 -10 -119 -10 -185 -1 -121 -31 -612 -50 -805 -13 -132 -45 -281 -70 -328
-21 -40 -27 -21 -9 25 12 29 14 648 3 731 -7 47 11 60 22 15 16 -64 22 23 16
248 -9 369 -8 410 10 449 30 66 58 143 58 156 0 8 -7 14 -15 14 -21 0 -30 27
-17 53 6 12 15 39 21 60 10 38 9 38 -30 53 -21 9 -36 20 -33 25 3 5 2 9 -3 8
-30 -5 -45 2 -40 20 2 11 1 66 -3 123 -7 89 -12 112 -42 171 -26 51 -37 64
-46 55 -9 -9 -13 -7 -18 6 -7 18 13 39 27 30 4 -2 6 31 5 74 0 42 3 92 7 110
8 28 6 32 -12 32 -12 0 -21 5 -21 10 0 17 30 11 63 -12z m-2997 -58 c13 0 33
-5 44 -12 14 -9 24 -9 42 -1 15 8 77 10 188 7 91 -3 226 -6 301 -7 100 -1 140
-6 153 -16 14 -12 75 -15 304 -18 315 -3 324 -4 345 -22 12 -9 16 -9 19 1 3 9
11 9 36 -1 18 -7 42 -11 55 -9 20 4 22 1 19 -34 -3 -24 -9 -38 -18 -38 -10 0
-14 -15 -14 -59 0 -33 5 -63 10 -66 6 -3 10 -26 10 -50 0 -24 5 -47 10 -50 6
-3 10 -10 10 -16 0 -5 -4 -9 -10 -9 -5 0 -10 7 -10 16 0 12 -3 14 -12 6 -15
-12 -18 24 -18 175 0 63 -4 94 -12 100 -25 15 -146 24 -428 32 -298 8 -554 26
-606 42 -17 5 -96 9 -176 9 l-145 0 -11 -25 c-7 -14 -13 -56 -13 -93 l-1 -67
-9 60 c-12 82 -11 81 -73 109 -39 18 -56 32 -56 44 0 29 12 34 27 12 8 -11 25
-20 39 -20z m-170 -249 c7 -13 17 -28 23 -34 6 -6 11 -17 11 -24 0 -6 10 -23
23 -37 45 -50 74 -91 81 -113 4 -13 12 -23 17 -23 5 0 9 -4 9 -10 0 -14 -54
-12 -68 2 -7 7 -12 9 -12 4 0 -4 -11 6 -25 22 -14 17 -25 39 -25 50 0 11 -16
53 -35 93 -19 41 -35 80 -35 87 0 20 23 9 36 -17z m-1376 -102 c53 -24 62 -36
48 -62 -8 -16 -7 -22 6 -29 9 -5 16 -13 16 -18 0 -5 11 -26 25 -46 14 -20 25
-51 25 -69 0 -42 33 -116 70 -157 17 -18 30 -37 30 -41 0 -15 -29 13 -35 34
-4 10 -15 19 -26 19 -10 0 -19 4 -19 10 0 5 -14 22 -30 37 -39 34 -132 193
-114 193 3 0 -6 20 -20 44 -14 25 -26 54 -26 65 0 13 -6 21 -17 21 -11 0 -14
-3 -7 -8 15 -10 26 -70 14 -77 -6 -3 -7 1 -4 10 5 11 0 18 -15 22 -23 6 -27
18 -8 27 9 5 9 7 0 12 -10 4 -10 8 0 19 16 19 34 18 87 -6z m3024 -63 c-7 -19
11 -24 113 -32 48 -4 93 -10 98 -14 6 -5 46 -10 90 -13 99 -6 182 -32 189 -62
3 -11 3 -31 -1 -43 -5 -19 -1 -22 26 -22 17 0 31 -4 31 -10 0 -17 -150 -11
-213 8 -60 19 -97 58 -97 102 0 28 -31 33 -158 25 l-115 -7 7 33 c3 18 12 37
19 41 16 10 17 10 11 -6z m3801 -17 c22 -6 42 -14 45 -18 3 -3 14 -11 25 -17
12 -7 19 -20 18 -33 -2 -15 3 -21 16 -21 10 0 21 -9 24 -20 3 -11 11 -20 18
-20 10 0 10 3 1 12 -20 20 -15 40 8 33 11 -4 20 -2 20 4 0 20 27 11 38 -11
l11 -23 0 23 c1 19 6 22 46 22 25 0 45 -4 45 -10 0 -5 5 -10 10 -10 6 0 10 9
10 20 0 24 13 26 34 4 20 -19 20 -25 3 -18 -20 7 -41 -24 -39 -57 2 -21 -2
-29 -15 -29 -9 0 -13 -3 -10 -7 10 -9 58 -10 63 -1 9 15 34 8 34 -8 0 -35 -82
-62 -92 -32 -3 8 -18 12 -39 10 -19 -2 -53 1 -75 6 -25 6 -48 6 -58 0 -10 -6
-16 -5 -16 2 0 5 -11 10 -25 10 -14 0 -25 4 -25 9 0 13 40 25 73 22 15 -1 27
2 27 8 0 11 -26 15 -62 12 -16 -2 -45 35 -40 51 2 9 -25 15 -82 21 -33 3 -36
2 -20 -10 17 -12 16 -13 -4 -13 -12 0 -22 5 -22 10 0 6 -7 10 -15 10 -8 0 -15
9 -15 19 0 17 6 20 40 18 22 -1 40 -5 40 -9 0 -4 8 -8 17 -8 15 0 14 2 -3 15
-10 8 -34 15 -51 15 -31 0 -41 9 -26 23 9 10 22 9 68 -4z m-4408 -210 c-2 -12
-11 -27 -20 -34 -15 -11 -14 -13 15 -19 18 -3 120 -11 228 -17 107 -5 238 -14
290 -18 88 -8 90 -8 30 -9 -36 -1 -130 3 -210 8 -80 5 -183 10 -230 11 -47 0
-105 5 -130 9 -25 5 -170 14 -324 20 -153 7 -290 16 -305 21 -27 9 11 7 339
-11 210 -12 273 -6 278 27 2 14 -3 23 -15 26 -10 3 -1 5 19 6 33 1 37 -2 35
-20z m5467 -227 c8 -15 23 -35 34 -45 13 -12 20 -31 20 -48 -1 -34 31 -84 54
-84 35 0 88 -79 88 -130 0 -14 4 -25 9 -25 13 0 22 -30 16 -51 -6 -17 -8 -18
-35 -4 -75 39 -150 98 -150 119 0 10 -8 16 -21 16 -18 0 -20 4 -15 25 3 14 9
36 12 50 4 16 2 25 -6 25 -7 0 -9 -8 -5 -19 7 -23 -19 -35 -45 -21 -23 12 -37
53 -21 58 9 3 7 10 -5 23 -10 11 -12 19 -6 19 8 0 12 18 12 46 0 33 5 51 18
60 24 19 30 17 46 -14z m-1307 -221 c28 0 54 -4 57 -10 4 -5 32 -17 63 -26 55
-16 80 -16 191 1 37 5 46 3 62 -16 11 -13 20 -24 20 -26 0 -1 -19 -12 -42 -24
-40 -21 -50 -22 -153 -15 -60 5 -129 9 -152 9 -24 0 -43 4 -43 9 0 4 -77 7
-171 7 -124 -1 -169 -5 -166 -13 2 -7 -12 -20 -31 -29 -32 -16 -35 -16 -51 -1
-15 15 -16 15 -19 0 -2 -9 -10 -17 -18 -17 -16 0 -19 36 -3 45 6 4 8 13 5 21
-3 8 1 17 10 21 17 6 44 -25 37 -44 -3 -7 2 -13 10 -13 14 0 14 4 1 35 -15 37
-8 43 28 24 17 -9 19 -8 16 8 -5 25 33 43 96 44 28 1 62 5 76 9 14 5 48 7 75
5 28 -2 73 -4 102 -4z m-2190 -27 c18 -14 33 -32 33 -41 0 -26 53 -123 67
-123 10 0 13 -33 13 -144 l0 -143 -46 -49 -45 -49 -20 25 c-14 17 -22 21 -26
13 -3 -9 -34 -13 -104 -13 -92 0 -99 1 -99 20 0 21 -28 28 -45 11 -17 -15
-102 -31 -164 -31 -33 0 -70 -4 -83 -9 -56 -22 -139 -42 -163 -39 -26 3 -26 4
-8 21 42 41 65 55 103 61 22 3 40 11 40 16 0 6 21 10 48 10 38 0 55 6 90 34
39 31 41 35 27 50 -9 9 -31 16 -50 16 -18 0 -36 6 -38 13 -4 8 -8 8 -14 2 -12
-15 -51 -35 -67 -35 -8 0 -16 -5 -18 -12 -3 -8 -7 -8 -11 -2 -3 6 1 23 9 39 8
16 18 48 21 72 5 38 9 43 32 43 14 0 35 -7 45 -15 27 -21 53 -19 105 8 67 33
64 47 -8 47 -60 0 -61 0 -61 29 0 54 20 133 41 162 20 28 23 29 103 29 49 0
87 -5 94 -12 9 -9 20 -9 49 0 21 7 54 13 73 15 19 2 37 5 39 5 2 1 19 -9 38
-24z m3793 -91 c0 -8 4 -12 9 -8 11 6 97 -82 117 -120 11 -22 10 -26 -6 -35
-10 -5 -37 -10 -59 -10 -22 0 -46 -6 -54 -14 -21 -21 -34 -6 -40 49 -8 69 -15
114 -22 137 -4 10 -1 26 6 34 10 13 14 12 30 -2 11 -10 19 -23 19 -31z m205
-296 c37 -21 40 -25 40 -67 0 -43 1 -45 28 -42 15 2 40 -5 56 -14 25 -15 28
-20 19 -40 -6 -12 -8 -30 -5 -38 8 -20 53 -21 61 -1 7 20 78 20 114 0 15 -8
45 -36 67 -61 22 -25 61 -68 88 -94 26 -27 47 -52 47 -55 0 -3 -14 -5 -30 -5
-20 0 -33 6 -37 18 -11 31 -39 50 -66 45 -34 -7 -87 17 -87 39 0 20 -26 25
-32 6 -3 -9 -10 -8 -22 5 -30 29 -77 49 -102 43 -29 -8 -32 -36 -4 -36 11 0
20 -4 20 -10 0 -5 14 -10 30 -10 17 0 30 -4 30 -10 0 -6 -27 -10 -60 -10 l-60
0 0 49 c0 29 -6 53 -14 60 -7 6 -16 25 -20 42 -3 17 -10 28 -15 25 -5 -4 -12
2 -14 11 -4 15 -5 15 -6 -2 -2 -38 -16 -49 -42 -35 -32 17 -39 29 -39 67 0 17
-4 35 -10 38 -21 13 -5 107 18 104 4 0 25 -10 47 -22z m-4150 -190 c-29 -19
-189 -45 -350 -57 -77 -5 -171 -12 -210 -16 -38 -3 -66 -2 -62 3 5 4 12 8 15
8 4 1 18 7 32 15 43 23 179 40 340 41 85 1 173 5 195 9 59 11 61 11 40 -3z
m88 -137 c5 -116 12 -178 21 -187 3 -4 6 -1 6 5 0 7 5 12 10 12 16 0 12 -178
-5 -245 -8 -33 -19 -69 -24 -80 -24 -56 -33 -73 -55 -113 -13 -24 -31 -51 -39
-60 -10 -13 -12 -33 -7 -87 5 -50 -4 -769 -9 -792 -3 -11 -21 1 -26 17 -4 11
-10 18 -14 15 -5 -2 -17 2 -27 10 -19 15 -18 15 3 34 16 13 19 21 11 29 -6 6
-11 28 -10 49 0 21 -8 54 -18 73 -11 19 -24 48 -31 63 -10 26 -15 28 -57 26
-37 -3 -46 0 -52 16 -4 11 -6 25 -4 30 2 6 6 27 9 48 3 21 12 49 21 62 13 19
13 25 3 25 -10 0 -10 3 -1 12 7 7 12 23 12 36 0 44 22 100 52 132 20 22 28 41
26 59 -3 22 -8 26 -43 29 -24 2 -43 -2 -50 -10 -16 -20 -82 -48 -115 -48 -41
0 -43 37 -2 46 15 4 29 10 32 14 3 3 22 16 42 28 39 24 142 131 134 139 -3 3
-12 -2 -21 -11 -9 -9 -23 -16 -30 -16 -7 0 -23 -12 -34 -27 -12 -14 -23 -24
-25 -22 -9 11 -15 119 -6 119 5 0 10 7 10 17 0 24 -67 83 -135 120 -33 17 -70
41 -81 52 -12 11 -38 23 -58 27 -30 5 -36 10 -34 27 4 25 12 27 176 37 126 8
192 22 192 41 0 19 -62 39 -120 39 -61 0 -61 0 -58 28 3 27 4 27 84 30 75 3
83 5 107 31 14 16 23 32 20 35 -3 2 5 19 17 35 21 30 60 43 60 19 0 -6 9 -3
20 7 11 10 20 26 20 35 0 22 40 60 41 39 0 -8 5 2 11 21 10 36 28 55 40 42 3
-4 8 -54 11 -112z m-803 -329 c0 -5 -5 -11 -12 -13 -7 -3 -9 -11 -3 -24 7 -17
8 -17 12 -1 3 9 8 17 11 17 16 0 172 -62 244 -98 75 -36 77 -38 84 -79 4 -27
12 -43 20 -43 8 0 14 -9 14 -20 0 -11 -4 -20 -10 -20 -5 0 -11 -19 -11 -42 -1
-24 -4 -33 -6 -20 -3 14 -12 22 -24 22 -10 0 -19 5 -19 10 0 6 -7 10 -16 10
-8 0 -22 7 -30 15 -17 16 -74 21 -74 6 0 -5 -17 -12 -37 -16 -32 -6 -39 -3
-56 19 -11 16 -32 28 -55 32 -69 13 -112 60 -82 90 6 6 12 19 15 30 2 10 7 29
11 42 3 12 2 22 -2 22 -5 0 -17 7 -27 15 -28 21 -14 55 24 55 16 0 29 -4 29
-9z"/>
<path d="M11702 5694 c-13 -24 3 -48 38 -58 84 -24 90 -31 65 -80 -19 -36 -19
-36 9 -36 19 0 27 8 36 35 13 40 43 65 78 65 29 0 65 -19 169 -87 80 -52 129
-77 186 -94 46 -13 30 -1 -52 40 -44 22 -113 63 -154 90 -41 28 -98 61 -126
73 -44 18 -55 19 -75 8 -35 -18 -120 3 -145 38 -18 25 -19 25 -29 6z"/>
<path d="M10120 5543 c0 -20 -44 -45 -66 -36 -8 3 -14 0 -14 -6 0 -6 10 -11
22 -11 21 0 21 -1 3 -14 -10 -7 -16 -19 -13 -27 3 -8 2 -23 -2 -34 -7 -19 -8
-19 -18 5 -6 15 -6 29 -1 36 17 20 -81 44 -180 44 -70 0 -91 -3 -91 -14 0 -9
-12 -13 -37 -12 -33 1 -38 -2 -41 -23 -5 -35 7 -41 89 -47 41 -3 117 -13 169
-24 52 -11 115 -21 139 -22 l45 -3 2 81 c1 45 5 91 9 103 4 12 2 21 -4 21 -6
0 -11 -8 -11 -17z"/>
<path d="M9715 5150 c-4 -6 10 -10 35 -10 74 0 154 -35 208 -90 50 -52 75 -62
86 -34 9 23 8 24 -14 24 -12 0 -25 10 -32 25 -6 14 -15 25 -20 25 -5 0 -6 5
-3 10 4 6 62 11 138 11 162 2 106 17 -68 19 -60 0 -137 7 -170 15 -70 17 -151
19 -160 5z"/>
<path d="M9760 5052 c0 -5 8 -17 18 -28 26 -30 42 -62 42 -84 0 -20 11 -25 80
-34 19 -2 44 -7 55 -9 11 -3 23 -6 27 -6 3 -1 -9 -33 -28 -71 -44 -92 -44
-100 6 -100 33 0 40 -3 40 -20 0 -11 -4 -20 -10 -20 -5 0 -10 -9 -10 -20 0
-13 7 -20 18 -20 16 0 18 9 18 68 -1 37 3 92 7 123 8 54 9 55 37 51 19 -3 39
4 62 20 18 13 38 23 43 22 30 -6 55 -17 55 -25 0 -5 5 -9 10 -9 16 0 12 47 -5
54 -8 3 -15 12 -15 21 0 16 -25 21 -34 6 -4 -5 -24 -12 -46 -16 -22 -4 -42
-11 -46 -16 -14 -23 -79 -8 -158 37 -44 26 -91 52 -103 58 -13 6 -23 14 -23
19 0 4 -9 7 -20 7 -11 0 -20 -4 -20 -8z"/>
<path d="M9720 4729 c0 -106 11 -131 73 -171 23 -15 42 -26 43 -25 1 1 5 27 8
57 4 34 16 69 31 91 29 40 33 79 9 79 -9 0 -24 10 -35 23 l-18 22 -1 -45 c0
-49 -17 -120 -28 -120 -4 0 -15 7 -24 14 -14 11 -18 29 -18 90 0 69 -2 76 -20
76 -19 0 -20 -7 -20 -91z"/>
</g>
</svg>
