<svg width="320" height="840" viewBox="0 0 320 840" fill="none" xmlns="http://www.w3.org/2000/svg">
<path fill-rule="evenodd" clip-rule="evenodd" d="M48.989 49.7321L52.0396 0.843282C180.194 22.727 231.356 21.3151 294.068 3.87516e-05L294.755 11.7686C259.993 24.4249 230.621 33.4947 202.186 39.6715L219.319 160.829L132.469 291.366C132.469 291.366 151.197 359.29 174.215 399.636L167.461 410.363C129.035 365.416 104.959 275.259 104.959 275.259C104.959 275.259 162.946 210.35 183.24 149.651C203.534 88.9511 171.259 45.548 171.259 45.548L172.856 45.068C135.892 50.6286 97.9033 51.669 48.989 49.7321ZM207.676 514.966C232.436 468.305 230.906 392.059 177.206 303.764L183.589 298.401C242.833 370.983 275.33 485.343 275.33 485.343C275.33 485.343 63.574 709.529 68.4262 721.783C73.2785 734.037 252.636 746.656 252.636 746.656C252.636 746.656 223.613 685.085 195.946 650.027L205.902 637.579C301.742 712.874 321.58 838.432 321.58 838.432L-0.999595 840L2.04859 702.706C2.04859 702.706 182.916 561.627 207.676 514.966Z" fill="url(#paint0_linear_319_1690)"/>
<defs>
<linearGradient id="paint0_linear_319_1690" x1="160.29" y1="0" x2="160.29" y2="840" gradientUnits="userSpaceOnUse">
<stop stop-color="#C27BFF" stop-opacity="0.2"/>
<stop offset="1" stop-color="#416EFF" stop-opacity="0.2"/>
</linearGradient>
</defs>
</svg>
